<?xml version="1.0" encoding="UTF-8"?>
<svg id="Layer_1" xmlns="http://www.w3.org/2000/svg" version="1.1" viewBox="0 0 3000 795.5">
  <!-- Generator: Adobe Illustrator 30.2.1, SVG Export Plug-In . SVG Version: 2.1.1 Build 1)  -->
  <defs>
    <style>
      .st0 {
        fill: #004937;
      }
    </style>
  </defs>
  <g id="SvgjsG3697">
    <path class="st0" d="M409.8,393.4l-1.2,27H111c4.7,66.8,49.2,98.8,102.8,98.8s71.5-18.8,86.7-54.3l103.1,15.2c-26.6,81.3-98.9,127.8-189.1,127.8C84.8,607.9,0,531.4,0,399.3s87.1-209.4,211-209.4,198.5,62.9,198.9,203.5h0ZM211.8,269.6c-51.2,0-86.7,23.8-97.7,77.4h184.4c-5.9-51.2-40.6-77.4-86.7-77.4h0ZM1009.8,190.7c85.9,0,141.4,43.8,141.4,126.2v283.3h-112.5v-251.2c0-47.3-29.7-68-63.3-68s-75.8,23-75.8,92.6v226.6h-113.7v-250c0-48.1-28.9-69.2-64.5-69.2s-75.4,23-75.4,98.5v220.8h-112.1V198.5h112.1v47.3c26.6-35.5,67.2-55.1,116.4-55.1s102,21.1,123.1,60.2c28.1-40.2,71.1-60.2,124.2-60.2h0ZM1534.7,190.7c105.9,0,193.4,77.7,193.4,209.4s-87.5,209.4-193.4,209.4-99.2-20.3-123.1-57v243h-112.5V198.5h106.7l3.1,53.9c22.3-39.9,71.1-61.7,125.8-61.7h0ZM1509.3,516.1c59,0,106.3-43,106.3-116s-47.3-116-106.3-116-107.1,45.7-107.1,116,46.9,116,107.1,116ZM1851.3,600.1V0h113.7v600.1h-113.7ZM2497.7,393.4l-1.2,27h-297.7c4.7,66.8,49.2,98.8,102.8,98.8s71.5-18.8,86.7-54.3l103.1,15.2c-26.6,81.3-98.9,127.8-189.1,127.8-129.7,0-214.5-76.6-214.5-208.6s87.1-209.4,211-209.4,198.5,62.9,198.9,203.5h0ZM2299.7,269.6c-51.2,0-86.7,23.8-97.7,77.4h184.4c-5.9-51.2-40.6-77.4-86.7-77.4h0ZM2884.7,198.5h115.3l-247.7,590.8h-114.1l91.8-205.5-165.3-385.2h122.7l95.7,264.1,101.6-264.1h0Z"/>
  </g>
</svg>