<svg width="247" height="59" viewBox="0 0 247 59" fill="none" xmlns="http://www.w3.org/2000/svg">
<path d="M16.4008 46.8032C13.1635 46.8032 10.3068 46.1127 7.83947 44.7362C5.36776 43.3596 3.44289 41.4149 2.06486 38.9022C0.686829 36.3894 0 33.4309 0 30.0222V29.2356C0 25.827 0.67808 22.8685 2.03424 20.3557C3.3904 17.8429 5.29339 15.8982 7.74322 14.5217C10.1931 13.1451 13.0366 12.4546 16.2739 12.4546C19.5112 12.4546 22.2454 13.167 24.6077 14.5872C26.97 16.0075 28.8074 17.974 30.1198 20.4868C31.4322 22.9996 32.0885 25.9188 32.0885 29.2356V32.0543H8.39943C8.48692 34.283 9.31812 36.0966 10.893 37.495C12.4679 38.8934 14.3928 39.5926 16.6676 39.5926C18.9425 39.5926 20.6924 39.0901 21.786 38.085C22.8797 37.0798 23.7109 35.9655 24.2796 34.7419L31.0385 38.2816C30.4261 39.4178 29.538 40.6545 28.3831 41.9874C27.2238 43.3203 25.6795 44.4565 23.759 45.396C21.8341 46.3356 19.3843 46.8076 16.4095 46.8076H16.4008V46.8032ZM8.46068 25.8925H23.6846C23.5097 24.0134 22.7528 22.5057 21.4186 21.3695C20.0843 20.2333 18.3431 19.6652 16.2039 19.6652C14.0647 19.6652 12.201 20.2333 10.8886 21.3695C9.57623 22.5057 8.7669 24.0134 8.46068 25.8925Z" fill="black"/>
<path d="M38.121 45.8854V13.3723H46.258V16.912H47.4391C48.0079 15.8195 48.9484 14.8712 50.2608 14.0584C51.5732 13.25 53.3012 12.8479 55.4448 12.8479C57.7634 12.8479 59.6227 13.298 61.0226 14.1939C62.4225 15.0897 63.4943 16.2609 64.238 17.6986H65.4192C66.1629 16.3002 67.2128 15.1422 68.569 14.2245C69.9251 13.3068 71.85 12.8479 74.3436 12.8479C76.3559 12.8479 78.1846 13.2762 79.8251 14.1283C81.4656 14.9805 82.778 16.2697 83.7623 17.9958C84.7466 19.722 85.241 21.8983 85.241 24.5203V45.8898H76.9728V25.1103C76.9728 23.3185 76.5134 21.9769 75.5947 21.0767C74.676 20.1808 73.3855 19.7307 71.7231 19.7307C69.842 19.7307 68.3896 20.3338 67.3615 21.5312C66.3335 22.7329 65.8173 24.4504 65.8173 26.6747V45.8811H57.5491V25.1015C57.5491 23.3098 57.0897 21.9682 56.171 21.068C55.2524 20.1721 53.9618 19.722 52.2994 19.722C50.4183 19.722 48.9615 20.325 47.9335 21.5224C46.9054 22.7242 46.3936 24.4416 46.3936 26.666V45.8723H38.1254V45.8854H38.121Z" fill="black"/>
<path d="M92.8488 58.9956V13.3723H100.986V17.3054H102.167C102.911 16.0381 104.07 14.9106 105.645 13.9273C107.22 12.9441 109.473 12.4503 112.404 12.4503C115.029 12.4503 117.457 13.097 119.688 14.3818C121.919 15.671 123.712 17.5632 125.068 20.0541C126.425 22.5451 127.103 25.5604 127.103 29.1001V30.1489C127.103 33.6887 126.425 36.704 125.068 39.1949C123.712 41.6858 121.919 43.5781 119.688 44.8629C117.457 46.152 115.029 46.7988 112.404 46.7988C110.435 46.7988 108.781 46.5715 107.452 46.1083C106.117 45.6495 105.045 45.0595 104.236 44.3385C103.427 43.6174 102.779 42.8876 102.298 42.1447H101.117V58.9912H92.8488V58.9956ZM109.91 39.5926C112.491 39.5926 114.622 38.771 116.306 37.1366C117.99 35.4979 118.835 33.1031 118.835 29.9567V29.3011C118.835 26.1547 117.981 23.7643 116.275 22.1255C114.569 20.4868 112.447 19.6696 109.91 19.6696C107.373 19.6696 105.251 20.4911 103.545 22.1255C101.839 23.7599 100.986 26.1591 100.986 29.3011V29.9567C100.986 33.1031 101.839 35.4979 103.545 37.1366C105.251 38.7754 107.373 39.5926 109.91 39.5926Z" fill="black"/>
<path d="M133.398 45.8854V0H141.666V45.8854H133.398Z" fill="black"/>
<path d="M164.371 46.8032C161.134 46.8032 158.277 46.1127 155.81 44.7362C153.338 43.3596 151.413 41.4149 150.035 38.9022C148.657 36.3894 147.97 33.4309 147.97 30.0222V29.2356C147.97 25.827 148.648 22.8685 150.004 20.3557C151.361 17.8429 153.264 15.8982 155.713 14.5217C158.163 13.1451 161.007 12.4546 164.244 12.4546C167.481 12.4546 170.216 13.167 172.578 14.5872C174.94 16.0075 176.778 17.974 178.09 20.4868C179.402 22.9996 180.059 25.9188 180.059 29.2356V32.0543H156.37C156.457 34.283 157.288 36.0966 158.863 37.495C160.438 38.8934 162.363 39.5926 164.638 39.5926C166.913 39.5926 168.662 39.0901 169.756 38.085C170.85 37.0798 171.681 35.9655 172.25 34.7419L179.009 38.2816C178.396 39.4178 177.508 40.6545 176.353 41.9874C175.194 43.3203 173.65 44.4565 171.729 45.396C169.804 46.3356 167.354 46.8076 164.38 46.8076H164.371V46.8032ZM156.431 25.8925H171.655C171.48 24.0134 170.723 22.5057 169.389 21.3695C168.054 20.2333 166.313 19.6652 164.174 19.6652C162.035 19.6652 160.171 20.2333 158.859 21.3695C157.546 22.5057 156.737 24.0134 156.431 25.8925Z" fill="black"/>
<path d="M189.635 51.7851H207.352C208.577 51.7851 209.189 51.1296 209.189 49.8185V41.6247H208.008C207.658 42.3676 207.111 43.1105 206.368 43.8534C205.624 44.5963 204.618 45.2082 203.349 45.6889C202.081 46.1696 200.462 46.4099 198.493 46.4099C195.956 46.4099 193.734 45.8331 191.835 44.6706C189.932 43.5126 188.458 41.9088 187.408 39.8548C186.358 37.8009 185.833 35.4411 185.833 32.7754V13.3724H194.101V32.1199C194.101 34.5671 194.705 36.4025 195.904 37.6261C197.107 38.8497 198.826 39.4615 201.057 39.4615C203.594 39.4615 205.563 38.6225 206.963 36.94C208.363 35.2576 209.063 32.9065 209.063 29.8955V13.3768H217.331V51.6583C217.331 53.8871 216.675 55.6657 215.362 56.9985C214.05 58.3314 212.3 59 210.113 59H189.635V51.7851Z" fill="black"/>
<path d="M232.393 13.3723H223.972V31.9756H232.393V13.3723Z" fill="#F97346"/>
<path d="M247 13.3723H238.321V41.2707H247V13.3723Z" fill="#6E77E3"/>
</svg>
