<svg width="181" height="30" viewBox="0 0 181 30" fill="none" xmlns="http://www.w3.org/2000/svg">
<path d="M0 28.5715V9.13153H11.88V12.8035H3.672V17.0155H10.26V20.6875H3.672V28.5715H0Z" fill="#030303"/>
<path d="M16.3901 28.5715V24.8995H20.0621V28.5715H16.3901Z" fill="#030303"/>
<path d="M29.0345 28.5715V9.13153H36.8105C38.1965 9.13153 39.317 9.41053 40.172 9.96853C41.027 10.5175 41.6525 11.2105 42.0485 12.0475C42.4445 12.8845 42.6425 13.7305 42.6425 14.5855C42.6425 15.6745 42.395 16.579 41.9 17.299C41.414 18.019 40.7435 18.5005 39.8885 18.7435V18.0685C41.1035 18.3205 42.0125 18.883 42.6155 19.756C43.2275 20.629 43.5335 21.6055 43.5335 22.6855C43.5335 23.8465 43.3175 24.868 42.8855 25.75C42.4625 26.632 41.8145 27.325 40.9415 27.829C40.0685 28.324 38.9705 28.5715 37.6475 28.5715H29.0345ZM32.7605 25.1155H37.2695C37.7645 25.1155 38.2055 25.012 38.5925 24.805C38.9795 24.589 39.281 24.292 39.497 23.914C39.722 23.527 39.8345 23.0725 39.8345 22.5505C39.8345 22.0915 39.74 21.682 39.551 21.322C39.362 20.962 39.074 20.6785 38.687 20.4715C38.309 20.2555 37.8365 20.1475 37.2695 20.1475H32.7605V25.1155ZM32.7605 16.7185H36.7565C37.1705 16.7185 37.5395 16.6465 37.8635 16.5025C38.1875 16.3585 38.444 16.138 38.633 15.841C38.822 15.535 38.9165 15.1435 38.9165 14.6665C38.9165 14.0725 38.732 13.573 38.363 13.168C37.994 12.763 37.4585 12.5605 36.7565 12.5605H32.7605V16.7185Z" fill="#030303"/>
<path d="M59.1589 28.9765C57.2149 28.9765 55.5364 28.5535 54.1234 27.7075C52.7194 26.8615 51.6349 25.678 50.8699 24.157C50.1139 22.636 49.7359 20.8675 49.7359 18.8515C49.7359 16.8355 50.1139 15.067 50.8699 13.546C51.6349 12.025 52.7194 10.8415 54.1234 9.99553C55.5364 9.14953 57.2149 8.72653 59.1589 8.72653C61.1029 8.72653 62.7769 9.14953 64.1809 9.99553C65.5939 10.8415 66.6784 12.025 67.4344 13.546C68.1994 15.067 68.5819 16.8355 68.5819 18.8515C68.5819 20.8675 68.1994 22.636 67.4344 24.157C66.6784 25.678 65.5939 26.8615 64.1809 27.7075C62.7769 28.5535 61.1029 28.9765 59.1589 28.9765ZM59.1589 25.5205C60.3919 25.5385 61.4179 25.273 62.2369 24.724C63.0559 24.175 63.6679 23.3965 64.0729 22.3885C64.4869 21.3805 64.6939 20.2015 64.6939 18.8515C64.6939 17.5015 64.4869 16.3315 64.0729 15.3415C63.6679 14.3515 63.0559 13.582 62.2369 13.033C61.4179 12.484 60.3919 12.2005 59.1589 12.1825C57.9259 12.1645 56.8999 12.43 56.0809 12.979C55.2619 13.528 54.6454 14.3065 54.2314 15.3145C53.8264 16.3225 53.6239 17.5015 53.6239 18.8515C53.6239 20.2015 53.8264 21.3715 54.2314 22.3615C54.6454 23.3515 55.2619 24.121 56.0809 24.67C56.8999 25.219 57.9259 25.5025 59.1589 25.5205Z" fill="#030303"/>
<path d="M75.8668 28.5715V9.13153H84.0748C84.2638 9.13153 84.5158 9.14053 84.8308 9.15853C85.1548 9.16753 85.4428 9.19453 85.6948 9.23953C86.8558 9.41953 87.8053 9.80203 88.5433 10.387C89.2903 10.972 89.8393 11.71 90.1903 12.601C90.5413 13.483 90.7168 14.4685 90.7168 15.5575C90.7168 17.1865 90.3118 18.5815 89.5018 19.7425C88.6918 20.8945 87.4228 21.6055 85.6948 21.8755L84.0748 21.9835H79.5388V28.5715H75.8668ZM86.8288 28.5715L82.9948 20.6605L86.7748 19.9315L90.9868 28.5715H86.8288ZM79.5388 18.5545H83.9128C84.1018 18.5545 84.3088 18.5455 84.5338 18.5275C84.7588 18.5095 84.9658 18.4735 85.1548 18.4195C85.6498 18.2845 86.0323 18.0595 86.3023 17.7445C86.5723 17.4205 86.7568 17.065 86.8558 16.678C86.9638 16.282 87.0178 15.9085 87.0178 15.5575C87.0178 15.2065 86.9638 14.8375 86.8558 14.4505C86.7568 14.0545 86.5723 13.699 86.3023 13.384C86.0323 13.06 85.6498 12.8305 85.1548 12.6955C84.9658 12.6415 84.7588 12.6055 84.5338 12.5875C84.3088 12.5695 84.1018 12.5605 83.9128 12.5605H79.5388V18.5545Z" fill="#030303"/>
<path d="M105.889 28.9765C104.449 28.9765 103.148 28.7245 101.987 28.2205C100.835 27.7075 99.8857 26.9785 99.1387 26.0335C98.4007 25.0795 97.9327 23.9455 97.7347 22.6315L101.569 22.0645C101.839 23.1805 102.397 24.04 103.243 24.643C104.089 25.246 105.052 25.5475 106.132 25.5475C106.735 25.5475 107.32 25.453 107.887 25.264C108.454 25.075 108.917 24.796 109.277 24.427C109.646 24.058 109.831 23.6035 109.831 23.0635C109.831 22.8655 109.799 22.6765 109.736 22.4965C109.682 22.3075 109.588 22.132 109.453 21.97C109.318 21.808 109.124 21.655 108.872 21.511C108.629 21.367 108.319 21.2365 107.941 21.1195L102.892 19.6345C102.514 19.5265 102.073 19.3735 101.569 19.1755C101.074 18.9775 100.592 18.694 100.124 18.325C99.6562 17.956 99.2647 17.47 98.9497 16.867C98.6437 16.255 98.4907 15.4855 98.4907 14.5585C98.4907 13.2535 98.8192 12.169 99.4762 11.305C100.133 10.441 101.011 9.79753 102.109 9.37453C103.207 8.95153 104.422 8.74453 105.754 8.75353C107.095 8.77153 108.292 9.00103 109.345 9.44203C110.398 9.88303 111.28 10.5265 111.991 11.3725C112.702 12.2095 113.215 13.2355 113.53 14.4505L109.561 15.1255C109.417 14.4955 109.151 13.9645 108.764 13.5325C108.377 13.1005 107.914 12.772 107.374 12.547C106.843 12.322 106.285 12.2005 105.7 12.1825C105.124 12.1645 104.579 12.2455 104.066 12.4255C103.562 12.5965 103.148 12.8485 102.824 13.1815C102.509 13.5145 102.352 13.9105 102.352 14.3695C102.352 14.7925 102.482 15.139 102.743 15.409C103.004 15.67 103.333 15.8815 103.729 16.0435C104.125 16.2055 104.53 16.3405 104.944 16.4485L108.319 17.3665C108.823 17.5015 109.381 17.6815 109.993 17.9065C110.605 18.1225 111.19 18.4285 111.748 18.8245C112.315 19.2115 112.778 19.7245 113.138 20.3635C113.507 21.0025 113.692 21.8125 113.692 22.7935C113.692 23.8375 113.471 24.751 113.03 25.534C112.598 26.308 112.013 26.9515 111.275 27.4645C110.537 27.9685 109.7 28.3465 108.764 28.5985C107.837 28.8505 106.879 28.9765 105.889 28.9765Z" fill="#030303"/>
<path d="M128.988 28.9765C127.548 28.9765 126.248 28.7245 125.087 28.2205C123.935 27.7075 122.985 26.9785 122.238 26.0335C121.5 25.0795 121.032 23.9455 120.834 22.6315L124.668 22.0645C124.938 23.1805 125.496 24.04 126.342 24.643C127.188 25.246 128.151 25.5475 129.231 25.5475C129.834 25.5475 130.419 25.453 130.986 25.264C131.553 25.075 132.017 24.796 132.377 24.427C132.746 24.058 132.93 23.6035 132.93 23.0635C132.93 22.8655 132.899 22.6765 132.836 22.4965C132.782 22.3075 132.687 22.132 132.552 21.97C132.417 21.808 132.224 21.655 131.972 21.511C131.729 21.367 131.418 21.2365 131.04 21.1195L125.991 19.6345C125.613 19.5265 125.172 19.3735 124.668 19.1755C124.173 18.9775 123.692 18.694 123.224 18.325C122.756 17.956 122.364 17.47 122.049 16.867C121.743 16.255 121.59 15.4855 121.59 14.5585C121.59 13.2535 121.919 12.169 122.576 11.305C123.233 10.441 124.11 9.79753 125.208 9.37453C126.306 8.95153 127.522 8.74453 128.854 8.75353C130.195 8.77153 131.391 9.00103 132.444 9.44203C133.497 9.88303 134.379 10.5265 135.09 11.3725C135.801 12.2095 136.314 13.2355 136.629 14.4505L132.66 15.1255C132.516 14.4955 132.251 13.9645 131.864 13.5325C131.477 13.1005 131.013 12.772 130.473 12.547C129.942 12.322 129.384 12.2005 128.799 12.1825C128.223 12.1645 127.679 12.2455 127.166 12.4255C126.662 12.5965 126.248 12.8485 125.924 13.1815C125.609 13.5145 125.451 13.9105 125.451 14.3695C125.451 14.7925 125.582 15.139 125.843 15.409C126.104 15.67 126.432 15.8815 126.828 16.0435C127.224 16.2055 127.629 16.3405 128.043 16.4485L131.418 17.3665C131.922 17.5015 132.48 17.6815 133.092 17.9065C133.704 18.1225 134.289 18.4285 134.847 18.8245C135.414 19.2115 135.878 19.7245 136.238 20.3635C136.607 21.0025 136.791 21.8125 136.791 22.7935C136.791 23.8375 136.571 24.751 136.13 25.534C135.698 26.308 135.113 26.9515 134.375 27.4645C133.637 27.9685 132.8 28.3465 131.864 28.5985C130.937 28.8505 129.978 28.9765 128.988 28.9765Z" fill="#030303"/>
<path d="M144.349 28.5715V9.13153H157.039V12.5605H148.021V16.7185H155.419V20.1475H148.021V25.1425H157.039V28.5715H144.349Z" fill="#030303"/>
<path d="M164.865 28.5715V9.13153H168.591L177.042 22.0915V9.13153H180.768V28.5715H177.042L168.591 15.6115V28.5715H164.865Z" fill="#030303"/>
<path d="M16.0207 24.4644H20.1189V29.018H16.0207V24.4644Z" fill="#9C231F"/>
<path d="M148.556 0H152.655V4.55357H148.556V0Z" fill="#9C231F"/>
</svg>
